<?xml version="1.0" standalone="no"?>
<!DOCTYPE svg PUBLIC "-//W3C//DTD SVG 20010904//EN"
 "http://www.w3.org/TR/2001/REC-SVG-20010904/DTD/svg10.dtd">
<svg version="1.0" xmlns="http://www.w3.org/2000/svg"
 width="2000.000000pt" height="1500.000000pt" viewBox="0 0 2000.000000 1500.000000"
 preserveAspectRatio="xMidYMid meet">
<metadata>
Created by potrace 1.16, written by Peter Selinger 2001-2019
</metadata>
<g transform="translate(0.000000,1500.000000) scale(0.100000,-0.100000)"
fill="#000000" stroke="none">
<path d="M9725 11971 c-329 -123 -476 -192 -614 -288 -35 -24 -64 -43 -66 -41
-1 2 1 32 6 68 14 106 -2 141 -54 121 -12 -5 -74 -57 -136 -115 -63 -59 -134
-119 -158 -132 -40 -24 -48 -25 -126 -19 -142 12 -256 -30 -371 -135 -65 -60
-113 -129 -140 -201 -17 -44 -20 -47 -64 -53 -26 -3 -101 -1 -167 5 -160 16
-200 9 -272 -46 -101 -76 -281 -241 -546 -504 -279 -277 -281 -279 -342 -453
-15 -42 -41 -99 -58 -125 -17 -26 -107 -122 -201 -213 -427 -414 -473 -466
-557 -632 -115 -228 -162 -410 -245 -953 -25 -165 -49 -319 -55 -342 -8 -40
-6 -48 51 -156 139 -264 242 -535 294 -767 38 -175 42 -215 21 -246 -15 -24
-22 -26 -62 -21 l-46 5 5 -147 c6 -179 10 -192 178 -571 294 -664 387 -889
461 -1117 27 -81 38 -103 52 -103 39 0 98 -45 123 -93 8 -15 25 -76 39 -135
77 -348 221 -551 458 -645 43 -17 84 -22 242 -27 223 -8 256 -18 369 -103 137
-105 275 -155 441 -161 l90 -4 242 -125 c259 -135 354 -188 445 -249 64 -43
94 -47 132 -17 l26 20 0 -72 0 -72 38 6 c213 34 446 51 692 51 283 0 399 -11
571 -57 73 -20 90 -21 124 -11 53 16 160 17 227 2 29 -7 109 -40 178 -75 138
-70 205 -86 234 -58 16 16 15 27 -1 71 -7 18 105 61 231 88 177 39 179 38 245
-49 41 -54 92 -95 119 -95 8 0 12 23 12 80 0 140 33 168 188 157 l84 -6 -6 62
c-4 34 -2 77 3 95 13 42 317 363 396 417 l54 38 67 -72 c36 -39 70 -71 76 -71
14 0 -1 78 -25 125 -11 22 -42 64 -68 93 -27 30 -49 57 -49 62 0 15 25 27 109
55 98 32 161 31 211 -5 l32 -23 -17 32 c-40 77 3 112 148 121 147 10 171 30
200 173 13 60 21 74 114 183 194 232 314 406 456 661 108 195 317 659 317 704
0 17 -118 -81 -187 -155 -35 -38 -89 -107 -119 -153 -30 -45 -64 -88 -75 -94
-19 -10 -48 -9 -88 2 -10 3 -23 -21 -43 -81 l-28 -85 2 68 c2 37 2 67 0 67 -2
0 -90 -67 -195 -148 -471 -364 -870 -654 -1237 -899 -262 -175 -295 -193 -350
-193 -42 0 -81 27 -107 74 -10 17 -15 15 -72 -33 -37 -30 -72 -51 -86 -51 -30
0 -49 32 -41 71 l6 29 -75 0 c-81 0 -95 -8 -120 -66 -18 -43 -27 -43 -48 1
-21 44 -34 44 -42 2 -17 -95 -23 -120 -24 -101 -1 12 -8 27 -16 34 -13 11 -21
8 -45 -15 -16 -16 -33 -37 -36 -48 -5 -15 -14 -7 -49 45 -23 34 -56 76 -73 91
l-29 28 19 -57 c13 -39 17 -64 11 -78 -9 -19 -10 -19 -30 1 l-22 22 -6 -65
c-4 -35 -12 -64 -17 -64 -5 0 -35 -24 -67 -54 -63 -61 -93 -76 -151 -76 -65 0
-269 -29 -392 -57 l-117 -26 -208 46 c-235 52 -466 89 -693 112 -85 8 -202 20
-258 26 -200 20 -408 89 -611 203 -89 50 -101 60 -85 69 39 20 84 72 90 103 9
46 -3 60 -26 31 -23 -30 -54 -42 -145 -61 l-70 -15 -130 127 c-71 70 -258 246
-415 392 -510 473 -888 859 -978 999 -46 72 -96 180 -177 382 -82 204 -116
279 -125 279 -4 0 -15 -9 -25 -20 -25 -28 -49 -25 -79 10 -38 46 -54 106 -35
138 22 39 43 48 79 35 23 -9 30 -9 30 1 0 7 -20 154 -45 327 -29 199 -44 329
-40 356 3 23 25 81 49 130 24 48 48 104 54 123 6 19 39 285 72 590 36 321 72
606 86 675 75 353 230 677 478 995 166 214 772 800 939 908 110 72 610 366
767 452 352 191 674 296 1014 329 60 6 202 11 316 11 194 0 208 1 250 23 69
34 90 84 90 214 l0 103 -38 -6 c-50 -8 -91 10 -172 76 -50 41 -139 92 -153 90
-1 0 -96 -36 -212 -79z m-3427 -5724 c12 -12 42 -69 67 -127 25 -57 57 -124
70 -148 14 -25 25 -46 25 -48 0 -3 -17 4 -39 15 -59 31 -87 70 -95 136 -4 33
-20 84 -41 126 -36 71 -30 92 13 46z"/>
<path d="M11277 11751 l-109 -6 -31 -36 c-18 -19 -37 -44 -42 -54 -10 -16 -14
-16 -35 -4 -18 10 -58 13 -148 12 -146 -2 -197 -20 -239 -84 -83 -125 5 -277
221 -384 110 -54 214 -82 361 -97 125 -12 115 -8 329 -136 225 -134 517 -331
1001 -677 l420 -300 51 0 c39 1 69 10 134 43 45 23 85 42 89 42 3 0 7 -44 8
-97 2 -115 22 -199 88 -370 52 -135 97 -202 170 -253 90 -63 160 -141 185
-206 30 -76 32 -199 6 -301 l-18 -73 47 -92 c26 -51 72 -131 103 -177 54 -83
183 -223 231 -253 21 -12 26 -25 32 -82 11 -105 54 -135 110 -75 34 37 34 39
12 -116 -19 -138 -22 -443 -5 -490 6 -18 11 -23 11 -12 3 69 35 334 52 437 24
142 77 360 108 438 12 31 16 52 10 52 -14 0 -67 -56 -101 -109 -16 -23 -36
-41 -46 -41 -17 0 -19 14 -25 193 -4 105 -14 255 -21 332 -26 246 -76 639 -85
667 -5 14 -210 348 -456 742 -336 538 -466 737 -521 800 -169 192 -432 390
-693 520 -201 101 -486 201 -659 232 -97 17 -379 25 -545 15z"/>
<path d="M8578 7204 c-51 -27 -62 -74 -27 -118 28 -35 76 -35 118 0 41 34 43
83 5 113 -31 24 -58 26 -96 5z"/>
<path d="M8830 7213 c-34 -13 -39 -23 -24 -51 11 -21 14 -85 14 -303 0 -263 1
-276 20 -297 14 -15 33 -22 58 -22 44 0 92 28 71 41 -11 6 -15 71 -19 305 l-5
296 -24 19 c-22 18 -60 23 -91 12z"/>
<path d="M9337 7204 c-26 -14 -27 -16 -12 -37 10 -14 15 -45 15 -94 l0 -73
-63 0 c-45 0 -75 -6 -107 -22 -146 -74 -171 -308 -44 -404 49 -38 138 -45 187
-16 34 19 35 19 51 1 20 -24 82 -25 114 -3 20 14 21 17 7 37 -12 18 -15 68
-15 300 l0 278 -25 24 c-28 29 -66 32 -108 9z m-16 -284 c17 -10 19 -22 19
-140 0 -122 -1 -130 -22 -144 -58 -41 -122 5 -133 95 -16 130 57 231 136 189z"/>
<path d="M7485 7180 c-91 -14 -151 -34 -145 -51 2 -8 7 -122 10 -254 6 -268 8
-277 78 -311 54 -26 221 -32 296 -10 102 30 165 116 146 201 -11 48 -43 82
-103 110 -44 21 -46 23 -23 29 13 3 39 20 56 38 30 30 32 35 28 90 -5 67 -35
108 -103 139 -49 22 -160 30 -240 19z m181 -114 c38 -32 39 -86 2 -123 -23
-22 -37 -27 -102 -31 l-76 -5 0 85 c0 47 3 88 7 91 3 4 37 7 74 7 57 0 72 -4
95 -24z m37 -274 c77 -72 17 -162 -108 -162 -93 0 -105 13 -105 112 l0 80 94
-4 c83 -3 98 -6 119 -26z"/>
<path d="M11109 7175 c-39 -21 -44 -45 -15 -69 13 -12 61 -82 105 -156 l81
-134 0 -114 c0 -107 1 -114 25 -137 15 -15 36 -25 54 -25 57 0 56 -1 53 143
l-4 132 97 125 c54 68 101 135 107 149 22 60 -41 112 -114 93 -31 -8 -33 -10
-30 -49 3 -37 -2 -50 -54 -118 l-57 -76 -59 98 c-33 54 -70 108 -81 120 -28
29 -75 37 -108 18z"/>
<path d="M9638 7165 c-32 -18 -33 -23 -13 -49 12 -16 15 -66 15 -276 0 -244 1
-257 20 -278 24 -25 85 -30 114 -9 15 11 16 17 7 35 -6 12 -11 69 -11 132 l0
111 112 -2 c102 -1 113 0 125 18 16 23 8 49 -17 63 -10 5 -64 13 -119 16
l-101 7 0 74 0 73 113 0 c61 0 129 -4 150 -9 32 -8 39 -6 52 12 21 29 19 50
-6 73 -19 17 -40 19 -218 22 -161 2 -201 -1 -223 -13z"/>
<path d="M7996 6985 c-16 -13 -17 -17 -5 -31 10 -13 15 -61 19 -180 4 -144 7
-164 25 -184 31 -35 70 -50 126 -50 53 0 119 29 119 53 0 7 12 -3 26 -20 20
-27 33 -33 62 -33 21 0 48 7 60 16 20 14 21 17 7 37 -12 17 -15 55 -15 185 0
158 -6 196 -34 214 -19 13 -81 9 -104 -8 -20 -14 -21 -17 -7 -37 11 -16 15
-49 15 -130 0 -144 -17 -177 -89 -177 -52 0 -59 21 -63 176 -3 123 -6 145 -22
163 -23 25 -90 28 -120 6z"/>
<path d="M8546 6987 c-13 -10 -16 -18 -10 -28 5 -8 11 -96 14 -195 6 -211 11
-224 85 -224 50 0 86 22 68 41 -9 9 -13 60 -13 178 0 138 -3 172 -18 201 -15
31 -22 35 -62 38 -27 2 -53 -3 -64 -11z"/>
<path d="M10275 6986 c-50 -22 -101 -87 -114 -145 -14 -65 -14 -77 0 -141 21
-98 102 -160 209 -160 145 0 220 78 220 230 0 114 -37 179 -122 215 -45 18
-152 19 -193 1z m139 -76 c31 -37 41 -82 41 -182 0 -67 -3 -80 -24 -102 -47
-50 -102 -25 -126 56 -29 99 -14 235 27 251 31 13 58 5 82 -23z"/>
<path d="M10694 6986 c-15 -12 -17 -17 -6 -27 8 -9 12 -59 12 -175 0 -213 12
-244 92 -244 49 0 74 20 59 48 -14 26 -15 246 -1 272 26 49 90 45 90 -5 0 -21
5 -25 30 -25 44 0 70 31 70 83 0 60 -29 87 -93 87 -40 0 -51 -5 -82 -37 -29
-30 -35 -33 -35 -16 0 11 -8 27 -18 36 -23 21 -91 22 -118 3z"/>
<path d="M11785 6981 c-81 -37 -115 -101 -115 -213 1 -151 76 -228 222 -228
111 0 189 66 210 176 21 118 -21 218 -113 265 -50 25 -149 25 -204 0z m140
-67 c42 -45 60 -199 31 -269 -17 -40 -55 -54 -91 -35 -64 34 -88 251 -34 309
27 28 65 27 94 -5z"/>
<path d="M12207 6986 c-16 -12 -16 -16 -2 -42 11 -22 15 -64 15 -167 0 -155 9
-184 63 -217 44 -27 131 -27 175 0 17 11 32 25 32 32 0 7 12 -2 26 -19 21 -28
32 -33 66 -33 24 0 49 7 59 16 15 14 16 18 3 42 -10 20 -14 71 -14 195 0 154
-2 169 -20 187 -24 24 -86 27 -118 4 -20 -14 -21 -17 -7 -37 11 -16 15 -50 15
-140 0 -112 -1 -119 -25 -142 -32 -33 -87 -34 -109 -3 -13 18 -16 51 -16 154
0 118 -2 134 -21 158 -16 21 -29 26 -62 26 -23 0 -50 -7 -60 -14z"/>
</g>
</svg>
